<?xml version="1.0" encoding="UTF-8"?>
<!DOCTYPE svg PUBLIC "-//W3C//DTD SVG 1.1//EN" "http://www.w3.org/Graphics/SVG/1.1/DTD/svg11.dtd">
<!-- Creator: CorelDRAW X8 -->
<svg xmlns="http://www.w3.org/2000/svg" xml:space="preserve" width="85.5132mm" height="19.4732mm" version="1.1" style="shape-rendering:geometricPrecision; text-rendering:geometricPrecision; image-rendering:optimizeQuality; fill-rule:evenodd; clip-rule:evenodd"
viewBox="0 0 8551 1947"
 xmlns:xlink="http://www.w3.org/1999/xlink">
 <defs>
  <style type="text/css">
   <![CDATA[
    .str0 {stroke:black;stroke-width:75}
    .str1 {stroke:white;stroke-width:20}
    .fil0 {fill:none}
    .fil1 {fill:black}
    .fil2 {fill:white}
   ]]>
  </style>
 </defs>
 <g id="图层_x0020_1">
  <metadata id="CorelCorpID_0Corel-Layer"/>
  <polygon class="fil0 str0" points="-19,24 8502,24 8502,1903 -19,1903 "/>
  <path class="fil1" d="M4691 691l1268 0c-30,38 -616,426 -641,426 -34,0 -510,-296 -614,-343 -19,25 -31,34 -41,71 46,10 557,312 573,332l-446 300c-55,35 -101,72 -154,103 18,24 25,33 41,59 202,-117 447,-294 655,-415 64,30 117,64 185,100l565 315c19,-25 31,-35 41,-71 -46,-9 -297,-154 -366,-192l-357 -199 723 -486c-8,-28 -13,-36 -14,-72l-1418 0 0 72z"/>
  <path class="fil1" d="M348 370l573 0 0 830c-47,11 -226,115 -286,143 -65,-30 -239,-131 -287,-143l0 -830zm-82 -71l-95 0 0 71 95 0 0 842c0,48 265,165 273,166l-382 202c14,44 14,15 28,59 58,-4 72,-20 115,-42 40,-22 72,-37 112,-56 275,-134 171,-134 445,0 38,18 68,33 104,51 39,20 64,43 124,47 13,-44 13,-15 27,-59l-382 -202c37,-8 109,-53 148,-73 37,-20 125,-52 125,-93l0 -842 123 0 0 -71 -123 0 0 -71 -82 0 0 71 -573 0 0 -71 -82 0 0 71z"/>
  <path class="fil1" d="M1248 311l710 0 0 1210 -710 0 0 -1210zm-81 1269l872 0 0 -1340 -872 0 0 1340z"/>
  <path class="fil1" d="M2799 169c10,37 46,83 68,118l-641 0 0 71 95 0 -95 309 750 0 -679 809c-34,42 -68,76 -98,116 29,17 40,27 81,35l797 -955c40,-49 82,-90 117,-136 -21,-25 -38,-30 -68,-47 -86,141 -94,107 -327,107 -155,0 -309,0 -464,0l82 -238 1132 0 0 -71 -546 0c-45,0 -113,-105 -122,-142 -43,9 -40,15 -82,24z"/>
  <polygon class="fil1" points="7526,438 6762,438 6762,509 7526,509 7526,1588 7608,1588 7608,509 8276,509 8276,438 7608,438 7608,236 7526,236 "/>
  <path class="fil1" d="M2594 1616c51,11 18,11 68,23l669 -794c6,70 216,697 218,771l81 -14c1,-82 -173,-594 -209,-729 -19,-71 -5,-75 -63,-64 26,-44 64,-84 98,-128 34,-44 78,-78 93,-133 -27,-16 -38,-21 -68,-35 -11,35 -727,904 -836,1028 -24,27 -40,40 -51,75z"/>
  <polygon class="fil1" points="4691,548 4772,548 4772,311 6027,311 6027,548 6109,548 6109,240 4691,240 "/>
  <polygon class="fil1" points="4026,1568 4108,1568 4108,228 4026,228 "/>
  <polygon class="fil1" points="3712,1521 3794,1521 3794,228 3712,228 "/>
  <polygon class="fil1" points="4227,513 4377,513 4377,1592 4500,1592 4500,1532 4445,1532 4445,441 4227,441 "/>
  <polygon class="fil1" points="6394,509 6544,509 6544,1588 6667,1588 6667,1529 6612,1529 6612,438 6394,438 "/>
  <polygon class="fil1" points="4227,311 4431,311 4431,240 4227,240 "/>
  <polygon class="fil1" points="6394,307 6598,307 6598,236 6394,236 "/>
  <polygon class="fil2 str1" points="406,854 1764,854 1764,954 406,954 "/>
  <polygon class="fil2 str1" points="4691,915 6178,915 6178,986 4691,986 "/>
  <polygon class="fil2 str1" points="2672,1218 3907,1218 3907,1279 2672,1279 "/>
  <polygon class="fil2 str1" points="6310,1218 7260,1218 7260,1279 6310,1279 "/>
 </g>
</svg>
